<?xml version="1.0" encoding="utf-8"?>
<!-- Generator: Adobe Illustrator 27.8.1, SVG Export Plug-In . SVG Version: 6.00 Build 0)  -->
<svg version="1.1" id="Layer_1" xmlns="http://www.w3.org/2000/svg" xmlns:xlink="http://www.w3.org/1999/xlink" x="0px" y="0px"
	 viewBox="0 0 127.56 127.56" style="enable-background:new 0 0 127.56 127.56;" xml:space="preserve">
<g>
	<path fill="#f9fafb" d="M31.22,109.05c0-1.21-0.17-2.3,0.03-3.31c0.57-2.94,2.99-4.85,6.03-4.87c4-0.03,8-0.01,12.18-0.01c0-1.71,0.03-3.36-0.01-5
		c-0.13-6.07,2.29-10.7,7.6-13.77c0.32-0.19,0.55-0.8,0.56-1.23c0.05-2.73,0.03-5.45,0.03-8.18c0-12.57-0.01-25.14,0.02-37.72
		c0-0.84-0.25-1.34-0.93-1.88c-1.14-0.93-2.09-2.1-3.15-3.13c-0.3-0.29-0.71-0.66-1.07-0.66c-8.09-0.04-16.19-0.03-24.46-0.03
		c0.2,0.54,0.35,0.96,0.52,1.38c4.54,10.78,9.01,21.6,13.68,32.32c1.14,2.62,1.16,5.07,0.5,7.69c-2.15,8.51-10.07,14.28-18.95,13.83
		c-8.6-0.44-15.86-7.15-17.12-15.75c-0.26-1.78-0.09-3.4,0.63-5.08c4.67-10.96,9.27-21.95,13.89-32.93
		c0.18-0.43,0.34-0.86,0.54-1.38c-0.72-0.06-1.35-0.05-1.96-0.16c-3.2-0.58-5.39-3.45-5.09-6.65c0.3-3.12,2.91-5.51,6.15-5.53
		c5.88-0.03,11.76-0.01,17.64-0.01c4.56,0,9.12,0.02,13.68-0.03c0.48-0.01,1.04-0.36,1.43-0.71c1.15-1.06,2.25-2.18,3.33-3.32
		c0.32-0.33,0.65-0.76,0.72-1.19c0.59-3.17,2.99-5.34,6.06-5.39c3.08-0.05,5.59,2.16,6.19,5.38c0.08,0.43,0.41,0.86,0.72,1.19
		c1.05,1.1,2.23,2.1,3.2,3.26c0.49,0.59,0.92,0.83,1.67,0.83c10.4-0.02,20.8-0.03,31.2-0.01c3.1,0.01,5.57,2.13,6.11,5.14
		c0.5,2.81-1.17,5.74-3.93,6.71c-0.91,0.32-1.9,0.38-3.02,0.59c0.15,0.39,0.31,0.84,0.5,1.28c4.58,10.9,9.12,21.83,13.8,32.69
		c0.9,2.09,1.01,4.08,0.58,6.21c-1.81,9.1-9.98,15.4-19.27,14.86c-8.98-0.52-16.38-7.74-17.14-16.84c-0.09-1.09,0.1-2.32,0.52-3.33
		c4.67-11.23,9.41-22.44,14.14-33.65c0.16-0.39,0.3-0.78,0.5-1.3c-0.45-0.03-0.8-0.08-1.16-0.08c-7.59,0-15.17,0.01-22.76-0.02
		c-0.79,0-1.26,0.23-1.78,0.87c-0.93,1.14-2.1,2.09-3.11,3.17c-0.35,0.38-0.72,0.94-0.73,1.42c-0.04,15.38-0.03,30.77-0.04,46.15
		c0,0.67,0.19,1.03,0.8,1.39c4.9,2.87,7.34,7.18,7.4,12.84c0.02,1.87,0,3.74,0,5.77c1.3,0,2.52,0,3.74,0c2.68,0,5.37-0.01,8.05,0
		c4.5,0.02,7.19,3.24,6.4,7.65c-0.02,0.12,0,0.25,0,0.53c0.74,0,1.5-0.01,2.25,0c3.49,0.07,6.18,2.77,6.16,6.19
		c-0.02,3.35-2.7,6.06-6.14,6.07c-7.97,0.03-15.94,0.01-23.91,0.01c-15.09,0-30.17,0-45.26,0c-3.73,0-6.5-2.6-6.52-6.08
		c-0.02-3.31,2.58-6.05,5.9-6.18C29.58,109.02,30.38,109.05,31.22,109.05z M24.92,32.49c-4.5,10.7-8.86,21.06-13.25,31.48
		c8.91,0,17.62,0,26.5,0C33.77,53.53,29.42,43.19,24.92,32.49z M115.91,63.99c-4.4-10.45-8.76-20.8-13.26-31.49
		c-4.5,10.69-8.86,21.04-13.26,31.49C98.3,63.99,107.01,63.99,115.91,63.99z M63.81,31.3c4.52-0.02,8.17-3.71,8.15-8.24
		c-0.02-4.5-3.74-8.15-8.27-8.12c-4.45,0.03-8.09,3.71-8.09,8.18C55.61,27.63,59.3,31.32,63.81,31.3z"/>
</g>
</svg>
