<?xml version="1.0" encoding="utf-8"?>
<!-- Generator: Adobe Illustrator 27.8.1, SVG Export Plug-In . SVG Version: 6.00 Build 0)  -->
<svg version="1.1" id="Layer_1" xmlns="http://www.w3.org/2000/svg" xmlns:xlink="http://www.w3.org/1999/xlink" x="0px" y="0px"
	 viewBox="0 0 127.56 127.56" style="enable-background:new 0 0 127.56 127.56;" xml:space="preserve">
<g>
	<path fill="#f9fafb" d="M127.56,79.74c-0.41,0.04-0.82,0.1-1.23,0.1c-8.55,0.01-17.11,0-25.66,0c-0.4,0-0.81,0-1.41,0
		c4.52-10.76,4.52-21.37,0.04-32.03c0.47-0.04,0.8-0.09,1.12-0.09c8.72,0,17.44,0,26.16,0c0.33,0,0.66,0.07,0.99,0.1
		c0,0.08,0,0.17,0,0.25c-1.16,3.67-2.15,7.39-3.52,10.98c-1.24,3.23-1.24,6.23,0,9.46c1.37,3.58,2.36,7.31,3.52,10.98
		C127.56,79.57,127.56,79.66,127.56,79.74z"/>
	<path fill="#f9fafb" d="M63.8,32.34c17.41,0.03,31.4,14.07,31.37,31.5c-0.03,17.41-14.08,31.42-31.49,31.38c-17.41-0.03-31.4-14.08-31.37-31.5
		C32.34,46.31,46.39,32.31,63.8,32.34z M76.17,51.35c-5.68,5.69-11.41,11.44-17.36,17.4c-2.64-2.66-5.13-5.18-7.52-7.59
		c-1.73,1.74-3.43,3.43-5.04,5.04c4.18,4.18,8.43,8.43,12.5,12.51c7.45-7.45,14.97-14.97,22.37-22.37
		C79.55,54.75,77.86,53.05,76.17,51.35z"/>
	<path fill="#f9fafb" d="M19.08,87.08c3.52,0,7.05,0.14,10.56-0.05c2.23-0.12,3.64,0.58,5.13,2.3c15.66,18.05,44.12,17.39,59.09-1.29
		c0.55-0.68,1.08-0.99,1.96-0.98c3.82,0.05,7.64,0.02,11.47,0.02c0.36,0,0.72,0.03,1.39,0.07c-1.59,1.63-3.02,3.05-4.38,4.53
		c-0.58,0.63-1.12,1.34-1.52,2.09c-2.26,4.25-4.49,8.52-6.69,12.79c-0.37,0.72-0.8,1.13-1.64,1.27c-4.63,0.74-9.26,1.5-13.87,2.33
		c-1.08,0.19-2.18,0.52-3.17,1c-4.26,2.06-8.49,4.17-12.7,6.32c-0.76,0.39-1.33,0.35-2.06-0.02c-3.14-1.61-6.37-3.04-9.44-4.77
		c-3.29-1.85-6.78-2.78-10.47-3.29c-3.33-0.45-6.63-1.13-9.95-1.64c-0.77-0.12-1.13-0.48-1.45-1.12c-1.91-3.73-3.9-7.42-5.77-11.17
		c-0.99-2-2.17-3.81-3.86-5.28c-1-0.87-2.01-1.73-3.01-2.6C18.82,87.42,18.95,87.25,19.08,87.08z"/>
	<path fill="#f9fafb" d="M18.8,40.35c1.52-1.57,2.96-3,4.34-4.48c0.56-0.6,1.07-1.28,1.45-2c2.26-4.25,4.51-8.51,6.68-12.8
		c0.43-0.84,0.95-1.21,1.85-1.35c4.63-0.74,9.26-1.5,13.88-2.32c0.96-0.17,1.94-0.46,2.82-0.89c4.33-2.1,8.64-4.25,12.93-6.43
		c0.71-0.36,1.24-0.38,1.95-0.01c3.1,1.59,6.31,2.98,9.33,4.71c3.39,1.93,7,2.89,10.82,3.4c3.21,0.43,6.39,1.06,9.58,1.56
		c0.81,0.13,1.3,0.47,1.68,1.22c1.88,3.7,3.88,7.34,5.71,11.06c1,2.04,2.26,3.84,3.92,5.39c0.96,0.89,1.83,1.88,2.99,3.08
		c-1.2,0-2.06,0-2.91,0c-3.37,0-6.73,0.04-10.1-0.03c-0.56-0.01-1.3-0.33-1.65-0.76c-15.81-19.5-44.93-19.5-60.63,0
		c-0.3,0.37-0.85,0.75-1.28,0.75c-4.2,0.06-8.39,0.03-12.59,0.03C19.37,40.48,19.18,40.42,18.8,40.35z"/>
	<path fill="#f9fafb" d="M0,47.79c9.4,0,18.68,0,28.18,0c-4.45,10.64-4.5,21.23,0,31.94c-9.43,0-18.72,0-28.14,0c0.09-0.4,0.15-0.79,0.26-1.16
		c1.31-4.54,2.65-9.07,3.91-13.62c0.2-0.71,0.21-1.56,0.02-2.27c-1.26-4.55-2.6-9.08-3.9-13.62C0.21,48.66,0.12,48.27,0,47.79z"/>
</g>
</svg>
