<?xml version="1.0" encoding="utf-8"?>
<!-- Generator: Adobe Illustrator 27.8.1, SVG Export Plug-In . SVG Version: 6.00 Build 0)  -->
<svg version="1.1" id="Layer_1" xmlns="http://www.w3.org/2000/svg" xmlns:xlink="http://www.w3.org/1999/xlink" x="0px" y="0px"
	 viewBox="0 0 127.56 127.56" style="enable-background:new 0 0 127.56 127.56;" xml:space="preserve">
<g>
	<path fill="#f9fafb" d="M30.86,51.66c-2.2,0-4.21,0-6.36,0c0,2.15,0,4.25,0,6.34c0,1.71-0.05,3.42,0.02,5.13c0.04,1.16-0.37,1.96-1.35,2.58
		c-1.58,1-3.14,2.03-4.65,3.13c-0.37,0.27-0.67,0.85-0.7,1.31c-0.15,2.19-1.43,3.89-3.49,4.48c-1.93,0.55-3.97-0.21-5.12-1.9
		c-1.11-1.63-1.02-3.9,0.2-5.46c1.3-1.66,3.45-2.28,5.46-1.43c0.62,0.26,1.01,0.18,1.5-0.17c1.21-0.84,2.45-1.63,3.65-2.47
		c0.26-0.18,0.61-0.5,0.62-0.77c0.04-3.57,0.03-7.14,0.03-10.77c-0.69-0.04-1.28-0.07-1.97-0.11c0-2.49,0-4.96,0-7.59
		c2.14,0,4.28-0.04,6.41,0.02c0.86,0.02,1.23-0.2,1.42-1.11c0.99-4.59,2.87-8.82,5.44-12.74c-1.81-1.79-3.59-3.55-5.25-5.2
		c3.69-3.7,7.24-7.26,10.78-10.81c1.61,1.64,3.35,3.41,5.14,5.24c4.44-2.9,9.06-4.84,14.07-5.87c0-2.56,0-5.02,0-7.57
		c5.08,0,10.11,0,15.24,0c0,2.47,0,4.96,0,7.55c5.02,1.04,9.62,2.92,13.79,5.68c1.79-1.81,3.54-3.58,5.16-5.22
		c3.74,3.73,7.3,7.28,10.91,10.9c-1.58,1.54-3.38,3.31-4.93,4.82c1.54,3.46,2.98,6.59,4.33,9.76c0.4,0.94,0.7,1.96,0.84,2.97
		c0.17,1.26,0.67,1.72,2,1.63c1.97-0.14,3.96-0.04,6-0.04c0,2.57,0,5.02,0,7.57c-0.64,0.04-1.26,0.08-2.01,0.13
		c0,2.28-0.01,4.54,0,6.79c0.01,1.43-0.42,3.1,0.18,4.22c0.6,1.12,2.26,1.65,3.4,2.51c0.87,0.66,1.62,0.9,2.77,0.49
		c2.51-0.89,5.31,0.89,5.8,3.48c0.52,2.73-1.33,5.32-4.01,5.62c-2.74,0.31-5.16-1.72-5.22-4.48c-0.02-0.79-0.27-1.22-0.9-1.61
		c-1.51-0.95-2.96-2-4.48-2.95c-0.97-0.61-1.39-1.4-1.38-2.56c0.05-3.42,0.02-6.84,0.02-10.26c0-0.39,0-0.78,0-1.23
		c-2.12,0-4.13,0-6.28,0c-0.03,0.37-0.07,0.75-0.07,1.13c-0.01,4.06-0.03,8.11,0.02,12.17c0.01,0.64,0.21,1.33,0.51,1.9
		c1,1.94,2.11,3.83,3.12,5.76c0.36,0.69,0.77,1.04,1.6,1.15c2.49,0.31,4.14,2.33,4.05,4.78c-0.09,2.42-1.96,4.33-4.42,4.49
		c-2.35,0.16-4.54-1.57-4.83-4.02c-0.11-0.9,0.12-1.91,0.47-2.75c0.27-0.65,0.24-1.06-0.07-1.62c-1.21-2.15-2.43-4.29-3.53-6.49
		c-0.41-0.82-0.68-1.79-0.7-2.7c-0.07-4.13-0.03-8.27-0.03-12.41c0-0.43,0-0.86,0-1.36c-0.46-0.07-0.83-0.13-1.28-0.2
		c-0.29-8.89-3.67-16.3-10.56-21.94c-5.44-4.46-11.75-6.5-18.78-6.32c-14.96,0.4-27.55,12.9-27.53,28.27
		c-0.37,0.06-0.74,0.12-1.22,0.2c0,0.47,0,0.9,0,1.33c0,4.22,0.03,8.43-0.03,12.65c-0.01,0.76-0.23,1.58-0.58,2.25
		c-1.18,2.3-2.48,4.53-3.67,6.82c-0.2,0.39-0.19,1.05-0.01,1.47c0.87,1.96,0.56,4.05-0.93,5.5c-1.45,1.41-3.62,1.73-5.41,0.8
		c-1.83-0.95-2.77-2.89-2.43-5c0.31-1.94,1.87-3.49,3.95-3.74c0.81-0.1,1.25-0.41,1.62-1.12c1.16-2.26,2.86-4.36,3.47-6.75
		c0.61-2.39,0.17-5.05,0.18-7.6C30.87,56.13,30.86,53.95,30.86,51.66z"/>
	<path fill="#f9fafb" d="M59.75,74.57c-1.46,0-2.91,0-4.49,0c-0.06-2.38-1.72-3.53-3.49-4.73c-7.63-5.2-11.2-14.68-8.98-23.55
		c2.26-9.04,9.77-15.69,18.94-16.8c10.21-1.23,19.96,4.77,23.53,14.48c3.51,9.56-0.01,20.39-8.54,26.05
		c-1.7,1.12-3.16,2.29-3.21,4.56c-1.56,0-3.02,0-4.55,0c-0.03-0.33-0.09-0.64-0.09-0.94c-0.01-4.13,0.02-8.27-0.02-12.4
		c-0.01-0.78,0.31-0.99,0.99-1.31c1.78-0.83,3.64-1.65,5.13-2.89c2.28-1.88,2.62-4.81,1.27-7.24c-1.31-2.36-4.06-3.55-6.72-2.89
		c-2.64,0.65-4.43,3-4.47,5.9c-0.02,1.31,0,2.62,0,4.03c-0.43,0.03-0.8,0.06-1.35,0.11c0-1.47,0.02-2.84,0-4.22
		c-0.06-3.27-2.38-5.75-5.6-6.01c-2.97-0.24-5.73,1.97-6.26,5.06c-0.35,2.09,0.41,3.83,1.88,5.28c1.48,1.46,3.29,2.34,5.26,2.92
		c0.53,0.16,0.93,0.26,0.93,0.98c-0.03,4.41-0.02,8.83-0.03,13.24C59.86,74.29,59.8,74.4,59.75,74.57z"/>
	<path fill="#f9fafb" d="M33.01,116.68c-0.74-2.77-1.45-5.41-2.15-8.04c-1.19-4.45-2.36-8.9-3.59-13.34c-0.21-0.75-0.07-1.16,0.55-1.59
		c1.23-0.87,2.39-1.86,3.63-2.71c2.49-1.72,5.19-2.25,8.16-1.43c6.47,1.79,12.95,3.52,19.42,5.29c3.17,0.86,5,3.23,4.93,6.31
		c-0.08,3.24-2.61,5.17-5.76,4.34c-3.57-0.94-7.12-1.95-10.69-2.9c-1.6-0.42-2.97,0.82-2.43,2.28c0.21,0.57,0.88,1.18,1.46,1.36
		c3.69,1.09,7.4,2.14,11.14,3.06c5.2,1.27,10.01-2.58,10.03-7.95c0-0.68,0.2-1.05,0.79-1.39c5.28-3.01,10.53-6.08,15.8-9.1
		c2.95-1.69,6.3-0.88,7.9,1.86c1.62,2.79,0.66,6.11-2.34,7.85c-9.76,5.66-19.54,11.27-29.3,16.94c-2.71,1.57-5.53,1.79-8.51,1.08
		c-3.55-0.84-7.12-1.62-10.67-2.48C38.56,115.44,35.8,115.39,33.01,116.68z"/>
	<path fill="#f9fafb" d="M30.31,121.37c-0.34,0.29-0.7,0.81-1.18,0.97c-1.54,0.51-3.12,0.91-4.7,1.3c-1.16,0.29-1.53-0.5-1.78-1.42
		c-1.28-4.8-2.56-9.59-3.84-14.38c-1-3.72-1.99-7.44-2.99-11.16c-0.44-1.66-0.23-2.04,1.39-2.48c1.23-0.33,2.45-0.67,3.68-0.99
		c1.41-0.36,1.84-0.11,2.22,1.32c1.99,7.4,3.97,14.8,5.96,22.2C29.46,118.19,29.85,119.64,30.31,121.37z"/>
	<path fill="#f9fafb" d="M73.39,78.53c0.25,2.06-0.88,3.56-2.88,3.6c-4.09,0.08-8.19,0.08-12.28,0c-1.99-0.04-3.13-1.55-2.87-3.6
		C61.37,78.53,67.38,78.53,73.39,78.53z"/>
	<path fill="#f9fafb" d="M58.46,86.04c3.93,0,7.85,0,11.77,0c-0.07,1.66-1.44,3.31-3.27,3.52c-1.72,0.2-3.5,0.19-5.22-0.01
		C60,89.36,58.73,87.83,58.46,86.04z"/>
	<path fill="#f9fafb" d="M64.99,74.57c-0.45,0-0.79,0-1.22,0c0-4.6,0-9.16,0-13.77c0.42,0,0.79,0,1.22,0C64.99,65.39,64.99,69.91,64.99,74.57z"/>
	<path fill="#f9fafb" d="M59.87,56.26c-1.51-0.48-2.77-1.08-3.73-2.19c-0.66-0.77-0.79-1.64-0.22-2.51c0.52-0.8,1.28-1.18,2.24-0.97
		c1.04,0.24,1.67,0.91,1.7,1.99C59.9,53.76,59.87,54.93,59.87,56.26z"/>
	<path fill="#f9fafb" d="M68.88,56.07c0-1.18-0.04-2.37,0.01-3.55c0.04-1.03,0.65-1.68,1.64-1.92c0.95-0.24,1.72,0.11,2.26,0.9
		c0.59,0.86,0.58,1.83-0.17,2.49c-1.04,0.91-2.25,1.62-3.39,2.41C69.12,56.29,69,56.18,68.88,56.07z"/>
</g>
</svg>
