<?xml version="1.0" encoding="utf-8"?>
<!-- Generator: Adobe Illustrator 27.8.1, SVG Export Plug-In . SVG Version: 6.00 Build 0)  -->
<svg version="1.1" id="Layer_1" xmlns="http://www.w3.org/2000/svg" xmlns:xlink="http://www.w3.org/1999/xlink" x="0px" y="0px"
	 viewBox="0 0 127.56 127.56" style="enable-background:new 0 0 127.56 127.56;" xml:space="preserve">
<g>
	<path fill="#f9fafb" d="M103.03,116.48c-10.89-0.02-19.65-8.84-19.62-19.74c0.03-10.85,8.9-19.65,19.79-19.6c10.79,0.04,19.58,8.89,19.57,19.71
		C122.75,107.72,113.93,116.5,103.03,116.48z M100.31,98.45c-1.25-1.27-2.54-2.66-3.91-3.97c-0.51-0.48-1.17-0.9-1.83-1.08
		c-1.24-0.33-2.47,0.32-3.08,1.41c-0.61,1.1-0.46,2.46,0.51,3.46c1.97,2.03,3.99,4.02,5.99,6.01c1.77,1.77,3.25,1.77,5.01,0.01
		c3.59-3.61,7.17-7.23,10.75-10.86c0.26-0.26,0.51-0.52,0.72-0.82c0.86-1.22,0.68-2.87-0.41-3.85c-1.07-0.97-2.61-1-3.77-0.07
		c-0.34,0.28-0.64,0.61-0.96,0.92C106.36,92.54,103.39,95.44,100.31,98.45z"/>
	<path fill="#f9fafb" d="M83.45,83.77c-3.59,5.61-4.68,11.63-3.39,18.24c-0.55,0-0.98,0-1.4,0c-13.19,0-26.39,0-39.58,0
		c-2.85,0-3.73-1.12-3.06-3.89c3.26-13.49,16.11-22.82,29.97-21.83c6.04,0.43,11.4,2.53,16.13,6.27c0.32,0.25,0.62,0.52,0.93,0.78
		C83.17,83.46,83.27,83.58,83.45,83.77z"/>
	<path fill="#f9fafb" d="M78.66,59.34c-0.13,8.15-6.73,14.56-14.86,14.42c-8.04-0.14-14.48-6.78-14.37-14.82c0.11-8.05,6.83-14.52,14.94-14.38
		C72.31,44.69,78.78,51.38,78.66,59.34z"/>
	<path fill="#f9fafb" d="M55.85,36.84c0.66-2.43,1.21-4.75,1.93-7.03c0.34-1.07,0.11-1.7-0.77-2.35c-1.69-1.25-3.31-2.6-4.93-3.95
		c-0.37-0.31-0.61-0.78-0.91-1.18c0.46-0.17,0.91-0.46,1.38-0.5c2.14-0.15,4.28-0.32,6.43-0.31c1.14,0,1.63-0.44,1.97-1.47
		c0.68-2.03,1.48-4.02,2.28-6.01c0.16-0.41,0.53-0.73,0.8-1.09c0.3,0.38,0.72,0.71,0.89,1.14c0.8,1.99,1.58,3.98,2.27,6.01
		c0.33,0.98,0.81,1.4,1.9,1.4c2.1,0,4.21,0.16,6.31,0.31c0.52,0.04,1.01,0.3,1.52,0.47c-0.31,0.43-0.54,0.95-0.94,1.28
		c-1.71,1.43-3.44,2.83-5.2,4.19c-0.61,0.47-0.75,0.9-0.53,1.65c0.68,2.29,1.28,4.59,1.87,6.9c0.09,0.34-0.07,0.74-0.12,1.11
		c-0.37-0.08-0.8-0.06-1.1-0.25c-1.88-1.19-3.78-2.36-5.58-3.67c-0.96-0.7-1.65-0.62-2.57,0.04c-1.81,1.29-3.7,2.47-5.58,3.66
		c-0.28,0.18-0.67,0.25-1,0.22C56.03,37.41,55.93,37,55.85,36.84z"/>
	<path fill="#f9fafb" d="M6.84,45.99c2.43,0.4,4.68,0.71,6.9,1.16c1.23,0.25,2,0.04,2.66-1.15c1.04-1.87,2.27-3.64,3.47-5.42
		c0.21-0.32,0.65-0.48,0.99-0.71c0.18,0.34,0.46,0.65,0.52,1.01c0.38,2.27,0.76,4.55,1.04,6.84c0.11,0.91,0.49,1.3,1.39,1.51
		c2.28,0.53,4.54,1.18,6.79,1.81c0.31,0.09,0.56,0.37,0.83,0.57c-0.23,0.29-0.4,0.7-0.7,0.86c-2.11,1.11-4.24,2.19-6.39,3.22
		c-0.74,0.35-0.99,0.8-0.92,1.6c0.18,2.22,0.31,4.44,0.41,6.67c0.02,0.48-0.19,0.97-0.3,1.45c-0.44-0.23-0.95-0.37-1.29-0.7
		c-1.63-1.58-3.23-3.19-4.79-4.83c-0.53-0.55-1-0.65-1.71-0.36c-2.17,0.89-4.36,1.72-6.56,2.52c-0.37,0.13-0.82,0.04-1.23,0.05
		c0.06-0.41,0.03-0.87,0.2-1.23c0.96-1.96,1.92-3.93,3-5.82c0.59-1.02,0.44-1.71-0.3-2.55c-1.49-1.7-2.89-3.49-4.31-5.26
		c-0.18-0.23-0.34-0.61-0.27-0.85C6.32,46.19,6.72,46.07,6.84,45.99z"/>
	<path fill="#f9fafb" d="M45.07,39.26c-1.17-0.07-2.35-0.11-3.51-0.23c-0.71-0.07-1.11,0.18-1.43,0.82c-1.04,2.14-2.12,4.27-3.23,6.38
		c-0.18,0.34-0.6,0.54-0.91,0.81c-0.21-0.31-0.53-0.6-0.62-0.94c-0.61-2.18-1.24-4.36-1.72-6.56c-0.23-1.08-0.79-1.43-1.79-1.55
		c-2.2-0.28-4.4-0.63-6.59-1c-0.38-0.07-0.72-0.4-1.07-0.61c0.24-0.29,0.43-0.66,0.74-0.86c1.85-1.23,3.7-2.47,5.61-3.61
		c0.94-0.56,1.24-1.16,1.01-2.26c-0.45-2.13-0.76-4.3-1.06-6.46c-0.06-0.42,0.16-0.88,0.25-1.32c0.39,0.16,0.83,0.24,1.15,0.49
		c1.84,1.46,3.66,2.93,5.45,4.45c0.55,0.46,1,0.52,1.63,0.18c2.1-1.12,4.22-2.22,6.36-3.27c0.34-0.17,0.8-0.09,1.21-0.13
		c-0.02,0.38,0.06,0.79-0.06,1.12c-0.8,2.16-1.6,4.32-2.5,6.44c-0.35,0.84-0.27,1.38,0.4,2.01c1.68,1.58,3.3,3.22,4.91,4.88
		c0.27,0.27,0.35,0.73,0.51,1.11c-0.37,0.1-0.73,0.3-1.1,0.29C47.49,39.41,46.28,39.32,45.07,39.26
		C45.07,39.26,45.07,39.26,45.07,39.26z"/>
	<path fill="#f9fafb" d="M104.48,60.75c0.06-1.17,0.08-2.35,0.21-3.51c0.08-0.77-0.19-1.19-0.87-1.52c-2.14-1.04-4.27-2.12-6.38-3.23
		c-0.31-0.16-0.51-0.54-0.77-0.82c0.3-0.22,0.58-0.55,0.92-0.64c2.26-0.63,4.51-1.26,6.79-1.8c0.85-0.2,1.2-0.63,1.31-1.46
		c0.31-2.24,0.66-4.48,1.04-6.71c0.07-0.42,0.39-0.8,0.59-1.2c0.35,0.29,0.79,0.52,1.03,0.89c1.26,1.88,2.5,3.78,3.68,5.71
		c0.43,0.7,0.91,0.91,1.69,0.77c2.27-0.4,4.54-0.78,6.82-1.1c0.41-0.06,0.87,0.15,1.3,0.24c-0.16,0.39-0.23,0.83-0.48,1.15
		c-1.43,1.81-2.88,3.61-4.37,5.36c-0.52,0.62-0.59,1.11-0.2,1.83c1.12,2.06,2.17,4.15,3.22,6.25c0.16,0.33,0.14,0.75,0.21,1.12
		c-0.41,0.01-0.86,0.14-1.22,0.01c-2.2-0.8-4.39-1.63-6.56-2.53c-0.75-0.31-1.25-0.21-1.81,0.38c-1.62,1.7-3.29,3.35-4.96,4.99
		c-0.26,0.25-0.67,0.34-1.01,0.5c-0.12-0.35-0.35-0.7-0.35-1.05c0.01-1.21,0.1-2.42,0.16-3.64
		C104.47,60.75,104.47,60.75,104.48,60.75z"/>
	<path fill="#f9fafb" d="M97.74,22.49c-0.4,2.41-0.71,4.65-1.15,6.87c-0.24,1.22-0.03,2,1.15,2.66c1.87,1.04,3.63,2.27,5.41,3.47
		c0.31,0.21,0.47,0.65,0.69,0.99c-0.34,0.17-0.66,0.45-1.01,0.51c-2.23,0.37-4.47,0.72-6.71,1.02c-0.89,0.12-1.42,0.42-1.64,1.42
		c-0.45,2.09-1.04,4.15-1.63,6.21c-0.14,0.5-0.5,0.94-0.75,1.41c-0.38-0.42-0.86-0.78-1.12-1.26c-1.03-1.93-2.01-3.88-2.95-5.84
		c-0.35-0.74-0.81-0.97-1.62-0.9c-2.34,0.18-4.68,0.3-7.03,0.39c-0.35,0.01-0.72-0.21-1.08-0.32c0.15-0.34,0.22-0.77,0.47-1.02
		c1.58-1.62,3.16-3.25,4.83-4.79c0.79-0.73,0.87-1.38,0.47-2.33c-0.84-1.97-1.6-3.97-2.33-5.99c-0.16-0.44-0.08-0.97-0.11-1.46
		c0.45,0.09,0.94,0.09,1.33,0.29c2.03,1,4.06,2,6.04,3.1c0.79,0.44,1.3,0.29,1.93-0.24c1.82-1.54,3.68-3.04,5.55-4.53
		c0.23-0.19,0.65-0.25,0.95-0.2C97.59,21.98,97.68,22.38,97.74,22.49z"/>
</g>
</svg>
