<svg width="120" height="120" viewBox="0 0 120 120" fill="none" xmlns="http://www.w3.org/2000/svg">
<g filter="url(#filter0_d_114_305)">
<path fill-rule="evenodd" clip-rule="evenodd" d="M12.17 108.258L18.905 83.67C14.75 76.475 12.565 68.31 12.5675 59.9475C12.58 33.785 33.87 12.5 60.035 12.5C72.7325 12.505 84.6475 17.4475 93.61 26.415C102.57 35.385 107.505 47.305 107.5 59.985C107.49 86.1475 86.195 107.435 60.035 107.435H60.015C52.0725 107.432 44.265 105.44 37.3325 101.657L12.17 108.258Z" fill="white"/>
<path fill-rule="evenodd" clip-rule="evenodd" d="M12.17 109.508C11.84 109.508 11.52 109.377 11.2825 109.137C10.97 108.82 10.8476 108.358 10.9651 107.93L17.5626 83.84C13.4726 76.575 11.315 68.325 11.32 59.95C11.33 33.095 33.1826 11.25 60.035 11.25C73.0601 11.255 85.2975 16.3275 94.495 25.5325C103.693 34.74 108.755 46.975 108.75 59.985C108.74 86.8375 86.885 108.685 60.035 108.685C52.0625 108.682 44.175 106.715 37.1751 102.992L12.4875 109.465C12.3825 109.495 12.2775 109.508 12.17 109.508Z" fill="white"/>
<path fill-rule="evenodd" clip-rule="evenodd" d="M87.9399 32.08C80.49 24.625 70.5875 20.5175 60.0475 20.515C38.2875 20.515 20.59 38.205 20.58 59.95C20.5775 67.4025 22.6625 74.6575 26.6125 80.94L27.5525 82.4325L23.565 96.985L38.4975 93.07L39.94 93.925C45.995 97.52 52.94 99.42 60.02 99.4225H60.035C81.78 99.4225 99.4775 81.73 99.485 59.9825C99.4874 49.445 95.39 39.535 87.9399 32.08Z" fill="#40C351"/>
<path fill-rule="evenodd" clip-rule="evenodd" d="M48.17 40.1125C47.2825 38.1375 46.3475 38.0975 45.5 38.0625C44.8075 38.0325 44.0175 38.035 43.2275 38.035C42.4375 38.035 41.1525 38.3325 40.065 39.52C38.9775 40.7075 35.9125 43.575 35.9125 49.41C35.9125 55.245 40.1625 60.885 40.755 61.675C41.3475 62.465 48.96 74.8225 61.015 79.5775C71.0325 83.5275 73.0725 82.7425 75.2475 82.545C77.4225 82.3475 82.265 79.6775 83.2525 76.9075C84.24 74.1375 84.24 71.765 83.945 71.27C83.6475 70.775 82.8575 70.48 81.6725 69.885C80.4875 69.29 74.655 66.4225 73.5675 66.0275C72.48 65.6325 71.69 65.435 70.8975 66.6225C70.1075 67.8075 67.835 70.48 67.1425 71.27C66.45 72.0625 65.7575 72.1625 64.5725 71.5675C63.3875 70.9725 59.5675 69.7225 55.035 65.6825C51.51 62.54 49.13 58.6575 48.4375 57.47C47.745 56.285 48.3625 55.6425 48.9575 55.05C49.49 54.5175 50.1425 53.665 50.7375 52.9725C51.33 52.28 51.5275 51.785 51.9225 50.995C52.3175 50.2025 52.12 49.51 51.8225 48.9175C51.53 48.3225 49.225 42.4575 48.17 40.1125Z" fill="white"/>
</g>
<defs>
<filter id="filter0_d_114_305" x="6.92114" y="11.25" width="105.829" height="106.258" filterUnits="userSpaceOnUse" color-interpolation-filters="sRGB">
<feFlood flood-opacity="0" result="BackgroundImageFix"/>
<feColorMatrix in="SourceAlpha" type="matrix" values="0 0 0 0 0 0 0 0 0 0 0 0 0 0 0 0 0 0 127 0" result="hardAlpha"/>
<feOffset dy="4"/>
<feGaussianBlur stdDeviation="2"/>
<feComposite in2="hardAlpha" operator="out"/>
<feColorMatrix type="matrix" values="0 0 0 0 0 0 0 0 0 0 0 0 0 0 0 0 0 0 0.25 0"/>
<feBlend mode="normal" in2="BackgroundImageFix" result="effect1_dropShadow_114_305"/>
<feBlend mode="normal" in="SourceGraphic" in2="effect1_dropShadow_114_305" result="shape"/>
</filter>
</defs>
</svg>
